<svg width="26" height="26" viewBox="0 0 26 26" fill="none" xmlns="http://www.w3.org/2000/svg">
<path d="M17.2094 12.786C17.2094 13.8457 16.7884 14.862 16.0391 15.6114C15.2898 16.3607 14.2735 16.7817 13.2138 16.7817C12.1541 16.7817 11.1377 16.3607 10.3884 15.6114C9.63909 14.862 9.21813 13.8457 9.21813 12.786C9.21813 12.5583 9.2421 12.3359 9.28339 12.1201H7.88625V17.4436C7.88625 17.8139 8.18592 18.1135 8.55618 18.1135H17.8727C18.0501 18.1132 18.2202 18.0424 18.3455 17.9168C18.4709 17.7912 18.5413 17.621 18.5413 17.4436V12.1201H17.1441C17.1854 12.3359 17.2094 12.5583 17.2094 12.786ZM13.2138 15.4498C13.5637 15.4497 13.9101 15.3807 14.2333 15.2467C14.5566 15.1127 14.8502 14.9164 15.0976 14.6689C15.3449 14.4214 15.5411 14.1277 15.675 13.8044C15.8088 13.4811 15.8776 13.1346 15.8775 12.7847C15.8774 12.4348 15.8084 12.0883 15.6744 11.7651C15.5405 11.4419 15.3441 11.1482 15.0967 10.9009C14.8492 10.6535 14.5554 10.4573 14.2321 10.3235C13.9088 10.1897 13.5623 10.1209 13.2124 10.1209C12.5058 10.1211 11.8281 10.402 11.3286 10.9018C10.829 11.4016 10.5485 12.0794 10.5487 12.786C10.5489 13.4927 10.8297 14.1703 11.3295 14.6699C11.8293 15.1694 12.5071 15.45 13.2138 15.4498ZM16.4103 9.98908H18.0072C18.1133 9.98908 18.215 9.94703 18.2902 9.87213C18.3653 9.79724 18.4077 9.69561 18.4081 9.58952V7.9926C18.4081 7.88627 18.3658 7.7843 18.2907 7.70912C18.2155 7.63394 18.1135 7.5917 18.0072 7.5917H16.4103C16.3039 7.5917 16.202 7.63394 16.1268 7.70912C16.0516 7.7843 16.0094 7.88627 16.0094 7.9926V9.58952C16.0107 9.80928 16.1905 9.98908 16.4103 9.98908ZM13.2138 0C9.8227 0 6.57052 1.3471 4.17267 3.74494C1.77483 6.14279 0.427734 9.39496 0.427734 12.786C0.427734 16.1771 1.77483 19.4293 4.17267 21.8271C6.57052 24.225 9.8227 25.5721 13.2138 25.5721C14.8928 25.5721 16.5555 25.2413 18.1068 24.5988C19.658 23.9562 21.0676 23.0144 22.2548 21.8271C23.4421 20.6398 24.384 19.2303 25.0265 17.679C25.6691 16.1278 25.9998 14.4651 25.9998 12.786C25.9998 11.1069 25.6691 9.4443 25.0265 7.89303C24.384 6.34175 23.4421 4.93223 22.2548 3.74494C21.0676 2.55765 19.658 1.61584 18.1068 0.973278C16.5555 0.33072 14.8928 0 13.2138 0ZM19.8731 17.9657C19.8731 18.7795 19.2072 19.4454 18.3934 19.4454H8.03409C7.22031 19.4454 6.55437 18.7795 6.55437 17.9657V7.60635C6.55437 6.79258 7.22031 6.12664 8.03409 6.12664H18.3934C19.2072 6.12664 19.8731 6.79258 19.8731 7.60635V17.9657Z" fill="#86DA54"/>
</svg>
